<svg xmlns="http://www.w3.org/2000/svg" viewBox="0 0 116.51 106.1"><defs><style>.cls-1{fill:#f9f9f9;}.cls-2{fill:#00fff1;}.cls-3{fill:#233148;}</style></defs><title>brush</title><g id="Layer_2" data-name="Layer 2"><g id="Layer_1-2" data-name="Layer 1"><circle class="cls-1" cx="53.9" cy="55.8" r="44"/><circle class="cls-1" cx="3.8" cy="85.1" r="3.8"/><path class="cls-1" d="M37.6,7.7a2.2,2.2,0,1,1-2.2-2.2A2.16,2.16,0,0,1,37.6,7.7Z"/><path class="cls-1" d="M20.6,98.2a7.9,7.9,0,1,1-7.9-7.9A7.85,7.85,0,0,1,20.6,98.2Z"/><circle class="cls-1" cx="100.6" cy="33" r="4"/><path class="cls-1" d="M24.6,5.3H20.3V1a1.08,1.08,0,0,0-1-1H16a1.08,1.08,0,0,0-1,1V5.3H10.7a1.08,1.08,0,0,0-1,1V9.6a1.08,1.08,0,0,0,1,1H15v4.3a1.08,1.08,0,0,0,1,1h3.3a1.08,1.08,0,0,0,1-1V10.6h4.3a1.08,1.08,0,0,0,1-1V6.3A1.08,1.08,0,0,0,24.6,5.3Z"/><path class="cls-1" d="M99.9,18.1H97.1V15.3a.68.68,0,0,0-.7-.7H94.2a.68.68,0,0,0-.7.7v2.8H90.7a.68.68,0,0,0-.7.7v2.1a.68.68,0,0,0,.7.7h2.8v2.8a.68.68,0,0,0,.7.7h2.2a.68.68,0,0,0,.7-.7V21.6h2.8a.68.68,0,0,0,.7-.7V18.8A.68.68,0,0,0,99.9,18.1Z"/><path class="cls-1" d="M16,84.4H14.5V82.9a.32.32,0,0,0-.3-.3H13.1a.32.32,0,0,0-.3.3v1.5H11.3a.32.32,0,0,0-.3.3v1.1a.32.32,0,0,0,.3.3h1.5v1.5a.32.32,0,0,0,.3.3h1.1a.32.32,0,0,0,.3-.3V86.1H16a.32.32,0,0,0,.3-.3V84.7A.32.32,0,0,0,16,84.4Z"/><path class="cls-1" d="M115.1,86.9H109V80.8a1.43,1.43,0,0,0-1.4-1.4h-4.7a1.43,1.43,0,0,0-1.4,1.4v6.1H95.4A1.43,1.43,0,0,0,94,88.3V93a1.43,1.43,0,0,0,1.4,1.4h6.1v6.1a1.43,1.43,0,0,0,1.4,1.4h4.7a1.43,1.43,0,0,0,1.4-1.4V94.4h6.1a1.43,1.43,0,0,0,1.4-1.4V88.3A1.31,1.31,0,0,0,115.1,86.9Z"/><path class="cls-2" d="M68.15,47.25H41.25a4.65,4.65,0,0,1-4.6-4.6v-5.3a4.59,4.59,0,0,1,4.6-4.6h26.9a4.65,4.65,0,0,1,4.6,4.6v5.3a4.65,4.65,0,0,1-4.6,4.6Z"/><path class="cls-3" d="M76.85,37h-2.2a6.57,6.57,0,0,0-6.5-6.2H41.35a6.49,6.49,0,0,0-6.5,6.5v5.3a6.49,6.49,0,0,0,6.5,6.5h26.8a6.49,6.49,0,0,0,6.5-6.5v-1.9h2.2a2.52,2.52,0,0,1,2.4,2.5,5.56,5.56,0,0,1-3.1,4.5l-17.9,7.5a9.44,9.44,0,0,0-5.4,8.1v2a6.45,6.45,0,0,0-4.8,6.3v11.6a6.49,6.49,0,0,0,6.5,6.5h.5a6.49,6.49,0,0,0,6.5-6.5V71.55a6.54,6.54,0,0,0-4.9-6.3v-2a5.81,5.81,0,0,1,3.1-4.7l17.9-7.5a9.14,9.14,0,0,0,5.4-7.9A6.51,6.51,0,0,0,76.85,37Zm-6,5.7a2.86,2.86,0,0,1-2.8,2.8H41.25a2.86,2.86,0,0,1-2.8-2.8v-5.3a2.86,2.86,0,0,1,2.8-2.8h26.8a2.86,2.86,0,0,1,2.8,2.8v5.3Zm-13.2,29v11.6a2.86,2.86,0,0,1-2.8,2.8h-.5a2.86,2.86,0,0,1-2.8-2.8V71.65a2.86,2.86,0,0,1,2.8-2.8h.5A2.86,2.86,0,0,1,57.65,71.65Z"/></g></g></svg>