<svg xmlns="http://www.w3.org/2000/svg" viewBox="0 0 116.51 106.1"><defs><style>.cls-1{fill:#f9f9f9;}.cls-2{fill:#00fff1;}.cls-3{fill:#233148;}</style></defs><title>Asset 4</title><g id="Layer_2" data-name="Layer 2"><g id="Layer_1-2" data-name="Layer 1"><circle class="cls-1" cx="53.9" cy="55.8" r="44"/><circle class="cls-1" cx="3.8" cy="85.1" r="3.8"/><path class="cls-1" d="M37.6,7.7a2.2,2.2,0,1,1-2.2-2.2A2.16,2.16,0,0,1,37.6,7.7Z"/><path class="cls-1" d="M20.6,98.2a7.9,7.9,0,1,1-7.9-7.9A7.85,7.85,0,0,1,20.6,98.2Z"/><circle class="cls-1" cx="100.6" cy="33" r="4"/><path class="cls-1" d="M24.6,5.3H20.3V1a1.08,1.08,0,0,0-1-1H16a1.08,1.08,0,0,0-1,1V5.3H10.7a1.08,1.08,0,0,0-1,1V9.6a1.08,1.08,0,0,0,1,1H15v4.3a1.08,1.08,0,0,0,1,1h3.3a1.08,1.08,0,0,0,1-1V10.6h4.3a1.08,1.08,0,0,0,1-1V6.3A1.08,1.08,0,0,0,24.6,5.3Z"/><path class="cls-1" d="M99.9,18.1H97.1V15.3a.68.68,0,0,0-.7-.7H94.2a.68.68,0,0,0-.7.7v2.8H90.7a.68.68,0,0,0-.7.7v2.1a.68.68,0,0,0,.7.7h2.8v2.8a.68.68,0,0,0,.7.7h2.2a.68.68,0,0,0,.7-.7V21.6h2.8a.68.68,0,0,0,.7-.7V18.8A.68.68,0,0,0,99.9,18.1Z"/><path class="cls-1" d="M16,84.4H14.5V82.9a.32.32,0,0,0-.3-.3H13.1a.32.32,0,0,0-.3.3v1.5H11.3a.32.32,0,0,0-.3.3v1.1a.32.32,0,0,0,.3.3h1.5v1.5a.32.32,0,0,0,.3.3h1.1a.32.32,0,0,0,.3-.3V86.1H16a.32.32,0,0,0,.3-.3V84.7A.32.32,0,0,0,16,84.4Z"/><path class="cls-1" d="M115.1,86.9H109V80.8a1.43,1.43,0,0,0-1.4-1.4h-4.7a1.43,1.43,0,0,0-1.4,1.4v6.1H95.4A1.43,1.43,0,0,0,94,88.3V93a1.43,1.43,0,0,0,1.4,1.4h6.1v6.1a1.43,1.43,0,0,0,1.4,1.4h4.7a1.43,1.43,0,0,0,1.4-1.4V94.4h6.1a1.43,1.43,0,0,0,1.4-1.4V88.3A1.31,1.31,0,0,0,115.1,86.9Z"/><path class="cls-2" d="M70.48,53.38l7.26-20.49a3.08,3.08,0,0,0,.2-.8,1.22,1.22,0,0,0-.3-.9.52.52,0,0,0-.4-.2c-.1,0-.1,0-.2-.1h-.2a4.31,4.31,0,0,1-.5-.1H37.85a3,3,0,0,0-3,3V54.68a3,3,0,0,0,2.89,2.09H65.9C67.5,56.86,70,55.07,70.48,53.38Z"/><path class="cls-3" d="M44.32,70.29a5.27,5.27,0,1,0,5.27,5.27A5.31,5.31,0,0,0,44.32,70.29Zm0,7A1.69,1.69,0,1,1,46,75.57,1.68,1.68,0,0,1,44.32,77.26Zm21.19-7a5.27,5.27,0,1,0,5.27,5.27A5.31,5.31,0,0,0,65.51,70.29Zm0,7a1.74,1.74,0,0,1-1.69-1.69,1.69,1.69,0,0,1,3.38,0A1.74,1.74,0,0,1,65.51,77.26ZM77.94,29.8a5.79,5.79,0,0,0-2.49-1.19h-.2c-.3,0-.6-.1-.9-.1H29.89a1.79,1.79,0,1,0,0,3.58h4a6.23,6.23,0,0,0-.6,2.69v28a6.41,6.41,0,0,0,6.37,6.37H72.57a1.79,1.79,0,1,0,0-3.58h-33a2.67,2.67,0,0,1-2.69-2.69V58.65a5.8,5.8,0,0,0,2.59.6H64.91a8.66,8.66,0,0,0,7.76-5.47L77.15,41l2-5.77a6.42,6.42,0,0,0,.3-2A4.37,4.37,0,0,0,77.94,29.8ZM75.65,34l-6.47,18.5a5.31,5.31,0,0,1-4.38,3.08H39.34a2.78,2.78,0,0,1-2.59-1.89V34.88a2.67,2.67,0,0,1,2.69-2.69H74.26a.9.9,0,0,1,.5.1h.3c.2.1.3.1.4.2a1,1,0,0,1,.3.8A2.24,2.24,0,0,1,75.65,34Z"/></g></g></svg>