<svg xmlns="http://www.w3.org/2000/svg" viewBox="0 0 116.51 106.1"><defs><style>.cls-1{fill:#f9f9f9;}.cls-2{fill:#00fff1;}.cls-3{fill:#233148;}</style></defs><title>Asset 1</title><g id="Layer_2" data-name="Layer 2"><g id="Layer_1-2" data-name="Layer 1"><circle class="cls-1" cx="53.9" cy="55.8" r="44"/><circle class="cls-1" cx="3.8" cy="85.1" r="3.8"/><path class="cls-1" d="M37.6,7.7a2.2,2.2,0,1,1-2.2-2.2A2.16,2.16,0,0,1,37.6,7.7Z"/><path class="cls-1" d="M20.6,98.2a7.9,7.9,0,1,1-7.9-7.9A7.85,7.85,0,0,1,20.6,98.2Z"/><circle class="cls-1" cx="100.6" cy="33" r="4"/><path class="cls-1" d="M24.6,5.3H20.3V1a1.08,1.08,0,0,0-1-1H16a1.08,1.08,0,0,0-1,1V5.3H10.7a1.08,1.08,0,0,0-1,1V9.6a1.08,1.08,0,0,0,1,1H15v4.3a1.08,1.08,0,0,0,1,1h3.3a1.08,1.08,0,0,0,1-1V10.6h4.3a1.08,1.08,0,0,0,1-1V6.3A1.08,1.08,0,0,0,24.6,5.3Z"/><path class="cls-1" d="M99.9,18.1H97.1V15.3a.68.68,0,0,0-.7-.7H94.2a.68.68,0,0,0-.7.7v2.8H90.7a.68.68,0,0,0-.7.7v2.1a.68.68,0,0,0,.7.7h2.8v2.8a.68.68,0,0,0,.7.7h2.2a.68.68,0,0,0,.7-.7V21.6h2.8a.68.68,0,0,0,.7-.7V18.8A.68.68,0,0,0,99.9,18.1Z"/><path class="cls-1" d="M16,84.4H14.5V82.9a.32.32,0,0,0-.3-.3H13.1a.32.32,0,0,0-.3.3v1.5H11.3a.32.32,0,0,0-.3.3v1.1a.32.32,0,0,0,.3.3h1.5v1.5a.32.32,0,0,0,.3.3h1.1a.32.32,0,0,0,.3-.3V86.1H16a.32.32,0,0,0,.3-.3V84.7A.32.32,0,0,0,16,84.4Z"/><path class="cls-1" d="M115.1,86.9H109V80.8a1.43,1.43,0,0,0-1.4-1.4h-4.7a1.43,1.43,0,0,0-1.4,1.4v6.1H95.4A1.43,1.43,0,0,0,94,88.3V93a1.43,1.43,0,0,0,1.4,1.4h6.1v6.1a1.43,1.43,0,0,0,1.4,1.4h4.7a1.43,1.43,0,0,0,1.4-1.4V94.4h6.1a1.43,1.43,0,0,0,1.4-1.4V88.3A1.31,1.31,0,0,0,115.1,86.9Z"/><path class="cls-2" d="M73.73,64.14H34.52a4.31,4.31,0,0,1-4-2.64,3.7,3.7,0,0,1-.38-1.7V36.9a4.39,4.39,0,0,1,4.34-4.34H73.73a4.39,4.39,0,0,1,4.34,4.34v22.9a4.32,4.32,0,0,1-4.34,4.34Z"/><path class="cls-3" d="M73.73,30.78H34.52A6.11,6.11,0,0,0,28.4,36.9v22.9a5.91,5.91,0,0,0,3.68,5.56V75.64a4.43,4.43,0,0,0,.75,2.73,3,3,0,0,0,2.54,1.41h.09a4.31,4.31,0,0,0,2.92-1.23l12.06-9.9a39.85,39.85,0,0,1,4-2.83H73.73a6.11,6.11,0,0,0,6.13-6.13V36.81A6.22,6.22,0,0,0,73.73,30.78ZM48.19,66.12,36.12,76a.86.86,0,0,1-.47.28,3.33,3.33,0,0,1-.09-.57v-9.8H48.38Zm28.09-6.31a2.7,2.7,0,0,1-2.64,2.64H34.43a2.57,2.57,0,0,1-2.36-1.6,3.39,3.39,0,0,1-.19-1V36.9a2.7,2.7,0,0,1,2.64-2.64H73.73a2.7,2.7,0,0,1,2.64,2.64v22.9Z"/></g></g></svg>