<svg xmlns="http://www.w3.org/2000/svg" viewBox="0 0 116.51 106.1"><defs><style>.cls-1{fill:#f9f9f9;}.cls-2{fill:#00fff1;}.cls-3{fill:#233148;}</style></defs><title>phone</title><g id="Layer_2" data-name="Layer 2"><g id="Layer_1-2" data-name="Layer 1"><circle class="cls-1" cx="53.9" cy="55.8" r="44"/><circle class="cls-1" cx="3.8" cy="85.1" r="3.8"/><path class="cls-1" d="M37.6,7.7a2.2,2.2,0,1,1-2.2-2.2A2.16,2.16,0,0,1,37.6,7.7Z"/><path class="cls-1" d="M20.6,98.2a7.9,7.9,0,1,1-7.9-7.9A7.85,7.85,0,0,1,20.6,98.2Z"/><circle class="cls-1" cx="100.6" cy="33" r="4"/><path class="cls-1" d="M24.6,5.3H20.3V1a1.08,1.08,0,0,0-1-1H16a1.08,1.08,0,0,0-1,1V5.3H10.7a1.08,1.08,0,0,0-1,1V9.6a1.08,1.08,0,0,0,1,1H15v4.3a1.08,1.08,0,0,0,1,1h3.3a1.08,1.08,0,0,0,1-1V10.6h4.3a1.08,1.08,0,0,0,1-1V6.3A1.08,1.08,0,0,0,24.6,5.3Z"/><path class="cls-1" d="M99.9,18.1H97.1V15.3a.68.68,0,0,0-.7-.7H94.2a.68.68,0,0,0-.7.7v2.8H90.7a.68.68,0,0,0-.7.7v2.1a.68.68,0,0,0,.7.7h2.8v2.8a.68.68,0,0,0,.7.7h2.2a.68.68,0,0,0,.7-.7V21.6h2.8a.68.68,0,0,0,.7-.7V18.8A.68.68,0,0,0,99.9,18.1Z"/><path class="cls-1" d="M16,84.4H14.5V82.9a.32.32,0,0,0-.3-.3H13.1a.32.32,0,0,0-.3.3v1.5H11.3a.32.32,0,0,0-.3.3v1.1a.32.32,0,0,0,.3.3h1.5v1.5a.32.32,0,0,0,.3.3h1.1a.32.32,0,0,0,.3-.3V86.1H16a.32.32,0,0,0,.3-.3V84.7A.32.32,0,0,0,16,84.4Z"/><path class="cls-1" d="M115.1,86.9H109V80.8a1.43,1.43,0,0,0-1.4-1.4h-4.7a1.43,1.43,0,0,0-1.4,1.4v6.1H95.4A1.43,1.43,0,0,0,94,88.3V93a1.43,1.43,0,0,0,1.4,1.4h6.1v6.1a1.43,1.43,0,0,0,1.4,1.4h4.7a1.43,1.43,0,0,0,1.4-1.4V94.4h6.1a1.43,1.43,0,0,0,1.4-1.4V88.3A1.31,1.31,0,0,0,115.1,86.9Z"/><path class="cls-2" d="M65.55,72.58H43.87a4.67,4.67,0,0,1-4.65-4.65V38.43a4.67,4.67,0,0,1,4.65-4.65H65.55a4.67,4.67,0,0,1,4.65,4.65v29.5a4.67,4.67,0,0,1-4.65,4.65Z"/><path class="cls-3" d="M65.55,26.43H43.87a6.47,6.47,0,0,0-6.51,6.51v35h0v9.49a6.53,6.53,0,0,0,6.51,6.51H65.55a6.47,6.47,0,0,0,6.51-6.51h0V32.85A6.51,6.51,0,0,0,65.55,26.43ZM43.77,30.15H65.45a2.89,2.89,0,0,1,2.79,2.42,6.84,6.84,0,0,0-2.79-.65H43.77a5.62,5.62,0,0,0-2.79.65A3,3,0,0,1,43.77,30.15ZM68.34,77.51a2.86,2.86,0,0,1-2.79,2.79H43.87a2.86,2.86,0,0,1-2.79-2.79V73.88a6.84,6.84,0,0,0,2.79.65H65.55a6.84,6.84,0,0,0,2.79-.65Zm0-9.49a2.86,2.86,0,0,1-2.79,2.79H43.87A2.86,2.86,0,0,1,41.08,68V38.52a2.86,2.86,0,0,1,2.79-2.79H65.55a2.86,2.86,0,0,1,2.79,2.79Zm-10,7.35H51.13a.93.93,0,0,0-.93.93v1.86a1,1,0,0,0,.93.93h7.16a1,1,0,0,0,.93-.93V76.3A1,1,0,0,0,58.29,75.37Z"/></g></g></svg>